<svg width="298" height="66" viewBox="0 0 298 66" fill="none" xmlns="http://www.w3.org/2000/svg">
<path fill-rule="evenodd" clip-rule="evenodd" d="M29.7876 54.6637C29.7876 53.1681 31 51.9557 32.4956 51.9557H56.8672C58.3628 51.9557 59.5752 53.1681 59.5752 54.6637C59.5752 56.1593 58.3628 57.3717 56.8672 57.3717H32.4956C31 57.3717 29.7876 56.1593 29.7876 54.6637Z" fill="#FDBAA3"/>
<path fill-rule="evenodd" clip-rule="evenodd" d="M48.7434 11.0077C47.9381 11.0077 47.1657 11.3276 46.5963 11.8971L13.2771 45.2163L11.8457 50.942L17.5713 49.5105L50.8905 16.1913C51.1725 15.9094 51.3961 15.5746 51.5487 15.2062C51.7013 14.8378 51.7799 14.443 51.7799 14.0442C51.7799 13.6455 51.7013 13.2506 51.5487 12.8822C51.3961 12.5138 51.1725 12.1791 50.8905 11.8971C50.6085 11.6151 50.2738 11.3915 49.9054 11.2389C49.537 11.0863 49.1421 11.0077 48.7434 11.0077ZM42.7666 8.06745C44.3518 6.48232 46.5017 5.5918 48.7434 5.5918C49.8534 5.5918 50.9525 5.81043 51.978 6.2352C53.0035 6.65997 53.9353 7.28257 54.7202 8.06745C55.505 8.85233 56.1276 9.78412 56.5524 10.8096C56.9772 11.8351 57.1958 12.9342 57.1958 14.0442C57.1958 15.1542 56.9772 16.2533 56.5524 17.2788C56.1276 18.3043 55.505 19.2361 54.7202 20.021L20.8706 53.8705C20.5235 54.2176 20.0887 54.4638 19.6126 54.5828L8.78069 57.2908C7.85789 57.5215 6.8817 57.2511 6.2091 56.5785C5.53649 55.9059 5.2661 54.9297 5.4968 54.0069L8.20477 43.1751C8.32381 42.6989 8.57001 42.2641 8.91706 41.917L42.7666 8.06745Z" fill="#1B1F23"/>
<path d="M106.315 17.1189C106.315 16.9384 106.369 16.7939 106.477 16.6856C106.622 16.5412 106.784 16.469 106.965 16.469H113.301C113.482 16.469 113.626 16.5412 113.735 16.6856C113.879 16.7939 113.951 16.9384 113.951 17.1189V53.7306C113.951 53.9111 113.879 54.0736 113.735 54.218C113.626 54.3263 113.482 54.3805 113.301 54.3805H107.181C106.82 54.3805 106.567 54.2361 106.423 53.9472L92.3958 30.767C92.3235 30.6587 92.2513 30.6226 92.1791 30.6587C92.1069 30.6587 92.0708 30.7309 92.0708 30.8754L92.1791 53.7306C92.1791 53.9111 92.1069 54.0736 91.9625 54.218C91.8542 54.3263 91.7097 54.3805 91.5292 54.3805H85.1926C85.012 54.3805 84.8496 54.3263 84.7051 54.218C84.5968 54.0736 84.5427 53.9111 84.5427 53.7306V17.1189C84.5427 16.9384 84.5968 16.7939 84.7051 16.6856C84.8496 16.5412 85.012 16.469 85.1926 16.469H91.3126C91.6736 16.469 91.9264 16.6134 92.0708 16.9023L106.044 39.9741C106.116 40.0824 106.188 40.1366 106.261 40.1366C106.333 40.1005 106.369 40.0102 106.369 39.8658L106.315 17.1189Z" fill="#1B1F23"/>
<path d="M134.046 54.9762C131.23 54.9762 128.739 54.3985 126.572 53.2431C124.442 52.0877 122.781 50.481 121.59 48.423C120.398 46.3288 119.802 43.9277 119.802 41.2198V29.6297C119.802 26.9578 120.398 24.5929 121.59 22.5348C122.781 20.4768 124.442 18.8881 126.572 17.7688C128.739 16.6134 131.23 16.0357 134.046 16.0357C136.899 16.0357 139.39 16.6134 141.52 17.7688C143.687 18.8881 145.366 20.4768 146.557 22.5348C147.749 24.5929 148.344 26.9578 148.344 29.6297V41.2198C148.344 43.9277 147.749 46.3288 146.557 48.423C145.366 50.5171 143.687 52.1419 141.52 53.2973C139.39 54.4166 136.899 54.9762 134.046 54.9762ZM134.046 48.423C136.032 48.423 137.639 47.7911 138.867 46.5274C140.094 45.2637 140.708 43.5847 140.708 41.4906V29.5755C140.708 27.4814 140.094 25.8024 138.867 24.5387C137.675 23.2389 136.068 22.589 134.046 22.589C132.061 22.589 130.454 23.2389 129.226 24.5387C128.035 25.8024 127.439 27.4814 127.439 29.5755V41.4906C127.439 43.5847 128.035 45.2637 129.226 46.5274C130.454 47.7911 132.061 48.423 134.046 48.423Z" fill="#1B1F23"/>
<path d="M179.935 16.469C180.115 16.469 180.259 16.5412 180.368 16.6856C180.512 16.7939 180.584 16.9384 180.584 17.1189V22.4265C180.584 22.607 180.512 22.7695 180.368 22.9139C180.259 23.0223 180.115 23.0764 179.935 23.0764H170.24C170.059 23.0764 169.969 23.1667 169.969 23.3472V53.7306C169.969 53.9111 169.897 54.0736 169.753 54.218C169.644 54.3263 169.5 54.3805 169.319 54.3805H162.983C162.802 54.3805 162.64 54.3263 162.495 54.218C162.387 54.0736 162.333 53.9111 162.333 53.7306V23.3472C162.333 23.1667 162.242 23.0764 162.062 23.0764H152.638C152.458 23.0764 152.295 23.0223 152.151 22.9139C152.042 22.7695 151.988 22.607 151.988 22.4265V17.1189C151.988 16.9384 152.042 16.7939 152.151 16.6856C152.295 16.5412 152.458 16.469 152.638 16.469H179.935Z" fill="#1B1F23"/>
<path d="M211.778 22.3723C211.778 22.5529 211.706 22.7154 211.561 22.8598C211.453 22.9681 211.309 23.0223 211.128 23.0223H193.364C193.183 23.0223 193.093 23.1125 193.093 23.2931V31.6877C193.093 31.8683 193.183 31.9585 193.364 31.9585H205.008C205.189 31.9585 205.333 32.0307 205.441 32.1752C205.586 32.2835 205.658 32.4279 205.658 32.6084V37.8619C205.658 38.0424 205.586 38.2049 205.441 38.3493C205.333 38.4577 205.189 38.5118 205.008 38.5118H193.364C193.183 38.5118 193.093 38.6021 193.093 38.7826V47.5564C193.093 47.7369 193.183 47.8272 193.364 47.8272H211.128C211.309 47.8272 211.453 47.8994 211.561 48.0438C211.706 48.1522 211.778 48.2966 211.778 48.4771V53.7306C211.778 53.9111 211.706 54.0736 211.561 54.218C211.453 54.3263 211.309 54.3805 211.128 54.3805H186.107C185.926 54.3805 185.764 54.3263 185.619 54.218C185.511 54.0736 185.457 53.9111 185.457 53.7306V17.1189C185.457 16.9384 185.511 16.7939 185.619 16.6856C185.764 16.5412 185.926 16.469 186.107 16.469H211.128C211.309 16.469 211.453 16.5412 211.561 16.6856C211.706 16.7939 211.778 16.9384 211.778 17.1189V22.3723Z" fill="#1B1F23"/>
<path d="M220.822 54.5971C219.594 54.5971 218.565 54.2 217.735 53.4056C216.94 52.5752 216.543 51.5462 216.543 50.3185C216.543 49.0548 216.94 48.0258 217.735 47.2315C218.529 46.4371 219.558 46.04 220.822 46.04C222.086 46.04 223.115 46.4371 223.909 47.2315C224.703 48.0258 225.1 49.0548 225.1 50.3185C225.1 51.5462 224.685 52.5752 223.855 53.4056C223.06 54.2 222.049 54.5971 220.822 54.5971Z" fill="#1B1F23"/>
<path d="M261.849 26.5968C264.196 26.5968 266.019 27.2647 267.319 28.6007C268.655 29.9005 269.323 31.7238 269.323 34.0707C269.323 34.3596 269.287 34.9012 269.215 35.6955L266.994 53.8389C266.922 54.2 266.724 54.3805 266.399 54.3805H263.799C263.474 54.3805 263.312 54.2 263.312 53.8389L265.478 36.4538C265.514 36.201 265.532 35.84 265.532 35.3706C265.532 33.7097 265.063 32.3918 264.124 31.4169C263.185 30.4421 261.903 29.9546 260.279 29.9546C258.401 29.9546 256.83 30.5323 255.567 31.6877C254.303 32.8431 253.545 34.3957 253.292 36.3454L251.126 53.8389C251.126 53.9833 251.072 54.1097 250.963 54.218C250.855 54.3263 250.71 54.3805 250.53 54.3805H247.876C247.551 54.3805 247.389 54.2 247.389 53.8389L249.555 36.4538C249.591 36.201 249.609 35.8219 249.609 35.3164C249.609 33.6555 249.14 32.3557 248.201 31.4169C247.262 30.4421 245.981 29.9546 244.356 29.9546C242.514 29.9546 240.962 30.5323 239.698 31.6877C238.47 32.8431 237.73 34.3957 237.478 36.3454L235.311 53.8389C235.311 53.9833 235.257 54.1097 235.149 54.218C235.04 54.3263 234.896 54.3805 234.715 54.3805H232.062C231.737 54.3805 231.574 54.2 231.574 53.8389L234.824 27.5175C234.896 27.1564 235.095 26.9759 235.419 26.9759H238.073C238.254 26.9759 238.38 27.03 238.452 27.1384C238.561 27.2467 238.597 27.3731 238.561 27.5175L238.29 29.6838C238.29 29.7561 238.308 29.8102 238.344 29.8463C238.416 29.8463 238.488 29.8102 238.561 29.738C239.463 28.6909 240.547 27.9146 241.81 27.4092C243.074 26.8676 244.446 26.5968 245.926 26.5968C247.732 26.5968 249.23 26.9759 250.422 27.7341C251.649 28.4923 252.516 29.5936 253.021 31.0378C253.021 31.11 253.039 31.1461 253.075 31.1461C253.148 31.1461 253.202 31.11 253.238 31.0378C254.177 29.5575 255.404 28.4562 256.921 27.7341C258.437 26.9759 260.08 26.5968 261.849 26.5968Z" fill="#1B1F23"/>
<path d="M297.211 36.0746C297.211 37.4467 297.048 39.2881 296.724 41.5989C296.724 41.7433 296.669 41.8697 296.561 41.978C296.453 42.0863 296.308 42.1405 296.128 42.1405H279.176C279.032 42.1405 278.959 42.2127 278.959 42.3571C278.815 43.9458 278.743 44.9568 278.743 45.39C278.743 47.2315 279.32 48.7118 280.476 49.8311C281.667 50.9143 283.328 51.4559 285.458 51.4559C286.975 51.4559 288.311 51.1129 289.466 50.4269C290.658 49.7408 291.651 48.766 292.445 47.5023C292.734 47.1773 292.987 47.1051 293.203 47.2856L295.099 48.5313C295.388 48.7118 295.424 48.9646 295.207 49.2895C294.124 51.0226 292.644 52.3946 290.766 53.4056C288.925 54.3805 286.848 54.8679 284.538 54.8679C282.046 54.8318 280.042 54.218 278.526 53.0265C277.01 51.835 275.999 50.1741 275.493 48.0438C275.276 47.1051 275.168 46.058 275.168 44.9026C275.168 43.6389 275.276 42.1946 275.493 40.5699C275.674 39.0173 275.854 37.7716 276.035 36.8329C276.215 35.8941 276.45 35.0456 276.739 34.2874C277.605 31.9405 279.032 30.063 281.017 28.6548C283.003 27.2467 285.278 26.5426 287.841 26.5426C291.019 26.5426 293.366 27.3731 294.882 29.0339C296.399 30.6948 297.175 33.0417 297.211 36.0746ZM287.408 29.9005C285.711 29.9005 284.231 30.3699 282.967 31.3086C281.739 32.2113 280.837 33.4389 280.259 34.9915C280.006 35.7136 279.718 36.9412 279.393 38.6743C279.393 38.8187 279.465 38.8909 279.609 38.8909H293.203C293.348 38.8909 293.42 38.8187 293.42 38.6743C293.492 37.23 293.528 36.3093 293.528 35.9122C293.528 34.1069 292.987 32.6626 291.903 31.5794C290.82 30.4601 289.322 29.9005 287.408 29.9005Z" fill="#1B1F23"/>
</svg>
